<svg width="100" height="100" viewBox="0 0 100 100" fill="none" xmlns="http://www.w3.org/2000/svg">
<rect width="100" height="100" fill="black"/>
<path d="M56 46V53H57.0345V55H58.069V57H59.1034V59H60.1379V60H61.1724V61H62.2069H63.2414V62H64.2759H65.3103V63H67.3793V64H74.6207V63H76.6897V62H78.7586V61H80.8276V60H81.8621V59H82.8966V57H83.931V55H84.9655V53H86V46H84.9655M56 53H57.0345V55H58.069V57H59.1034V59H60.1379V60H61.1724V61H62.2069H63.2414V62H64.2759H65.3103V63H67.3793V64H74.6207V63H76.6897V62H78.7586V61H80.8276V60H81.8621V59H82.8966V57H83.931V55H84.9655V53H86" stroke="#068EF7"/>
<path d="M86 46H84.9655V44H83.931V42H82.8966V40H81.8621V39H80.8276V38H79.7931H78.7586V37H77.7241H76.6897V36H74.6207V35H67.3793V36H65.3103V37H63.2414V38H61.1724V39H60.1379V40H59.1034V42H58.069V44H57.0345V46H56" stroke="#068EF7"/>
<path d="M59.0292 54.9653C59.0292 54.2719 59.0943 53.5862 58.8117 52.9503C58.6827 52.6601 58.4901 52.4087 58.3831 52.0995C58.3174 51.9097 58.2672 51.3887 58.1368 51.2583C58.1356 51.2571 58.0446 52.0286 57.9609 52.1123C57.828 52.2452 57.8202 51.2905 57.8202 51.1976C57.8202 50.7562 57.8202 50.3148 57.8202 49.8734C57.8202 49.4543 57.8015 48.9553 57.9225 48.5621C58.0215 48.2404 58.0504 47.8651 58.0504 47.5258C58.0504 47.4101 58.0482 47.292 57.9673 47.1996C57.9512 47.1812 57.866 47.1154 57.8905 47.0908C57.9648 47.0165 58.4072 47.0205 58.511 47.0205C58.9984 47.0205 59.4834 47.046 59.9631 46.9501C60.3958 46.8636 60.8389 46.8407 61.2744 46.7774C61.5453 46.738 61.8808 46.7957 62.138 46.7038C62.3222 46.6381 62.5789 46.6175 62.7745 46.6175C63.4239 46.6175 64.081 46.5241 64.7319 46.5055C66.8599 46.4447 68.9849 46.6175 71.1127 46.6175C72.5451 46.6175 73.9453 46.7077 75.3729 46.787C76.2579 46.8362 77.1534 47.0781 78.0276 47.0781" stroke="#068EF7" stroke-width="3" stroke-linecap="round"/>
<path d="M78.7184 52.4321C78.6765 52.516 78.5078 52.4891 78.437 52.4897C77.9051 52.4946 77.3729 52.4897 76.841 52.4897C74.8654 52.4897 72.8899 52.4897 70.9144 52.4897C69.313 52.4897 67.7117 52.4897 66.1104 52.4897C64.9695 52.4897 63.8049 52.5584 62.6689 52.4321C62.3464 52.3963 61.8638 52.3936 61.5943 52.1731C61.4757 52.0761 61.4102 51.9404 61.3064 51.8309C60.7448 51.238 60.339 50.425 60.1934 49.624C60.0639 48.9119 59.2274 49.191 58.7285 48.9075C58.4155 48.7297 58.1338 48.6007 57.8777 48.3446C57.8114 48.2782 57.5436 48.0217 57.5899 48.1143" stroke="#068EF7" stroke-width="3" stroke-linecap="round"/>
<path d="M65.1317 57.153C64.3812 57.1189 63.6796 56.6952 62.9536 56.5293C62.5467 56.4363 62.1075 56.4045 61.6902 56.4045C61.3604 56.4045 61.1053 56.4036 60.8011 56.3022C60.6432 56.2496 60.4914 56.2067 60.3309 56.1711C60.2678 56.157 60.251 56.0674 60.1806 56.0591C60.0084 56.0389 59.3923 55.5986 59.6049 55.5986" stroke="#068EF7" stroke-width="3" stroke-linecap="round"/>
<path d="M67.8951 59.9164C68.127 59.8874 67.8157 57.9677 67.7991 57.863C67.6008 56.6109 67.1911 55.4006 66.9004 54.1689C66.6331 53.0364 66.4562 51.8886 66.2959 50.737C66.1601 49.7618 66.1104 48.7785 66.1104 47.7945C66.1104 47.6002 66.0786 47.3729 66.1136 47.1804C66.173 46.8537 66.3568 47.8008 66.4334 48.1239C67.0232 50.6108 67.094 53.1877 67.1754 55.7297C67.1882 56.1273 67.2042 57.3205 67.2042 56.9227C67.2042 55.2239 67.2396 53.5253 67.3705 51.8309C67.5192 49.9066 67.7269 47.9453 68.2053 46.0706C68.2163 46.0276 68.6279 44.434 68.8866 44.9607C69.0108 45.2137 69.1402 45.8995 69.1744 46.0993C69.3858 47.3342 69.4972 48.5889 69.5742 49.8383C69.7011 51.8957 69.6798 53.9574 69.6798 56.0175C69.6798 56.0294 69.6579 57.2375 69.6222 56.8651C69.4586 55.1572 69.5675 53.3911 69.5998 51.6805C69.6326 49.9447 69.6708 48.2074 69.942 46.4896C69.9775 46.2648 70.0554 45.6062 70.1084 45.8275C70.2369 46.3652 70.1873 47.0439 70.2107 47.5834C70.3517 50.8365 70.3999 54.112 70.876 57.3385C71.0013 58.1878 70.948 57.0402 70.9495 56.8491C70.9714 54.2019 70.9981 51.5447 71.2054 48.9043C71.2455 48.394 71.284 48.0137 71.3461 47.5194C71.3615 47.3976 71.3782 46.777 71.522 46.6559C71.5758 46.6106 72.0069 48.53 72.0178 48.5877C72.2483 49.8121 72.4754 51.0373 72.7182 52.2594C72.7811 52.5758 72.8202 52.93 72.9229 53.2381C73.0076 53.4922 72.9807 52.7056 72.9997 52.4385C73.1185 50.7679 73.3292 49.1022 73.617 47.4523C73.7378 46.7595 73.8168 45.9076 74.1127 45.255C74.2854 44.8742 74.4362 46.0366 74.4902 46.4512C74.7421 48.3882 74.8899 50.3432 75.0243 52.2914C75.0655 52.8896 75.0693 54.6881 75.0914 54.0889C75.1288 53.0813 75.2004 52.0767 75.2961 51.0728C75.3891 50.0982 75.5115 49.1276 75.6544 48.1591C75.671 48.0465 75.7181 47.4233 75.7823 47.884C75.9734 49.2557 75.8974 50.6734 75.8974 52.0547C75.8974 52.6651 75.9387 51.5722 75.939 51.5686C76.08 49.7468 76.3048 47.9253 76.6363 46.1281C76.6456 46.0773 76.901 44.5344 77.0361 44.5577C77.2438 44.5935 77.2734 46.6966 77.2791 46.7902C77.444 49.455 77.5662 52.1252 77.6821 54.7926C77.7884 57.2366 77.6617 49.8942 77.8549 47.4555C77.9021 46.8588 77.9281 46.1851 78.1075 45.6068C78.1426 45.4938 78.1511 45.8403 78.1555 45.9586C78.1811 46.6407 78.1922 47.3231 78.1971 48.0056C78.2067 49.3516 78.2137 50.6962 78.2451 52.0419C78.2474 52.144 78.1954 53.7347 78.309 52.7776C78.5297 50.9191 78.8366 49.0691 79.2238 47.238C79.4815 46.0191 79.7239 44.7352 80.1321 43.5534C80.1465 43.5119 80.2004 43.4097 80.2153 43.4511C80.3173 43.7357 80.267 44.2313 80.2696 44.5034C80.2865 46.2441 80.2728 47.9855 80.2728 49.7263C80.2728 51.1934 80.3304 55.5944 80.3304 54.1273C80.3304 51.5361 80.3968 48.9559 80.5255 46.368C80.546 45.9568 80.5823 44.7223 80.5607 45.1334C80.5064 46.164 80.3225 47.189 80.2281 48.2167C80.1383 49.1939 80.0822 50.1737 80.017 51.1528C80.0163 51.1632 79.9746 52.0789 79.8698 51.6773C79.5729 50.5391 79.5377 49.2816 79.4125 48.1175C79.2604 46.7042 79.1101 45.2892 78.9839 43.8733C78.9384 43.3634 79.0149 43.1132 78.4721 43.0193C77.3249 42.8207 76.1358 42.8039 74.9763 42.7314C73.7138 42.6525 72.4518 42.5299 71.1862 42.5299C70.5307 42.5299 69.7677 42.6038 69.1297 42.4148C69.0595 42.394 68.8858 42.4195 68.9186 42.354C68.99 42.2111 70.0036 42.1277 70.0892 42.1142C71.6357 41.8693 73.2042 41.7528 74.7684 41.708C76.0764 41.6705 77.4321 41.6456 78.7312 41.8391C79.2036 41.9094 79.2429 41.9521 78.7248 41.9542C77.6449 41.9588 76.5648 41.9542 75.4848 41.9542C73.8136 41.9542 72.1376 41.9922 70.4666 41.9542C69.6007 41.9346 72.1449 41.4969 73.0061 41.4041C73.6708 41.3325 74.3373 41.321 75.0051 41.321C75.9727 41.321 74.1122 41.1148 74.0967 41.1131C71.7266 40.8408 69.3049 40.7665 66.9516 40.3742C66.5463 40.3067 66.757 40.2235 67.0443 40.1567C68.2197 39.8835 69.4709 39.8675 70.6713 39.8369C71.3701 39.8191 72.078 39.7992 72.7758 39.8529C73.3551 39.8975 72.4936 39.9247 72.424 39.9265C71.3006 39.9551 70.1697 39.9142 69.0529 39.7889C68.3614 39.7113 67.4624 39.6953 66.8076 39.4243C66.62 39.3467 67.4099 39.3068 67.4217 39.306C68.1869 39.252 68.952 39.241 69.7182 39.2804C70.211 39.3058 70.7087 39.3383 71.1958 39.4211C71.2982 39.4385 71.6601 39.5184 71.3301 39.4531C70.5905 39.3068 69.7942 39.2116 69.0721 39.0053C68.861 38.945 69.4917 38.87 69.7086 38.8358C71.0404 38.6261 72.3653 38.3967 73.7097 38.2793C74.5689 38.2043 75.4325 38.1506 76.294 38.1098C76.3533 38.107 76.9753 38.092 76.8634 38.065C75.5312 37.7434 74.0549 37.7902 72.6927 37.7068C72.6908 37.7067 72.2182 37.6918 72.2289 37.6652C72.2549 37.6001 72.6194 37.5967 72.6735 37.5916C72.8322 37.5769 72.9996 37.5998 73.1564 37.5756C73.3382 37.5477 72.8215 37.4153 72.6415 37.3773C71.8122 37.2023 70.9475 37.1759 70.102 37.1759C69.4108 37.1759 71.4834 37.1252 72.1745 37.1183C72.2197 37.1178 72.616 37.0972 72.3408 37.1535C71.7159 37.2813 71.0743 37.3373 70.441 37.4061C69.7858 37.4774 69.1294 37.536 68.474 37.6044C68.3218 37.6203 67.9024 37.6616 68.3269 37.6044C68.7479 37.5478 69.1689 37.5002 69.5838 37.4061C69.7945 37.3584 70.046 37.2398 70.2651 37.2398C71.0527 37.2398 68.7183 37.5565 67.9335 37.6236C67.0985 37.695 68.3124 37.5124 68.5156 37.4637C68.7732 37.4019 69.0468 37.3362 69.2832 37.211C69.3221 37.1904 68.7718 37.1759 68.6755 37.1759C68.0315 37.1759 67.3817 37.2334 66.7437 37.2334" stroke="#068EF7" stroke-width="3" stroke-linecap="round"/>
<path d="M58.6837 46.0993C58.6837 45.6564 58.6122 44.9105 58.8852 44.5161C58.9853 44.3716 59.1614 44.2234 59.2147 44.0588C59.2524 43.9422 59.4226 43.5854 59.5185 43.5087C59.615 43.4314 59.5729 43.212 59.6177 43.1057C59.7077 42.8918 59.7402 42.6572 59.8351 42.4436C59.961 42.1605 60.1399 41.9138 60.2669 41.6344C60.6029 40.8953 61.3664 40.391 61.9205 39.8369C62.6 39.1574 63.5929 38.6867 64.4984 38.3848" stroke="#068EF7" stroke-width="3" stroke-linecap="round"/>
<path d="M66.3982 39.306C65.9475 39.3285 65.4505 39.5634 65.0485 39.7474C64.2495 40.113 63.55 40.6486 63.0111 41.3433C62.4922 42.0125 62.243 42.9018 62.1252 43.7261C62.06 44.1823 61.9591 44.52 61.7638 44.9255C61.6725 45.115 61.4407 45.6931 61.4727 45.4853C61.4957 45.3357 61.6435 45.1477 61.7158 45.0247C61.9456 44.6337 62.1549 44.2366 62.3651 43.8349C62.7636 43.073 63.1651 42.3136 63.5645 41.5512C63.7265 41.2419 64.2506 41.0306 64.524 40.854C65.0897 40.4885 65.6503 40.1145 66.2191 39.7537C66.2392 39.741 66.7369 39.4073 66.507 39.6706C65.235 41.1269 63.797 42.4402 62.5026 43.8797C61.6378 44.8413 60.6772 45.7862 59.9567 46.867C59.9415 46.8897 59.6868 47.3148 59.6177 47.238C59.427 47.0261 60.0432 46.2516 60.1486 46.1057C61.1466 44.7239 62.5698 43.671 63.9291 42.6515C64.2046 42.4448 64.6351 42.2837 64.8438 41.999C65.1883 41.5293 65.5847 41.065 65.9856 40.6429C66.218 40.3983 66.4407 40.1886 66.2223 40.6877C65.4539 42.444 64.2785 44.0903 63.1679 45.6452C63.0044 45.8741 62.8086 46.1079 62.6817 46.3616C62.5364 46.6523 63.1547 45.9157 63.3854 45.6868C64.9755 44.1085 66.5084 42.4291 68.2341 40.9947C68.2444 40.9861 68.653 40.7208 68.6499 40.7261C68.4921 40.9953 68.2134 41.2518 68.0102 41.4809C67.0124 42.6058 65.9103 43.6586 64.9526 44.8168C64.8736 44.9123 64.6546 45.2086 64.7479 45.127C65.177 44.7516 65.5918 44.358 66.0208 43.982C66.8678 43.2397 67.722 42.5041 68.5859 41.7815C69.0228 41.4161 69.5336 40.8751 70.0892 40.6813C70.3757 40.5813 70.1907 40.8653 70.118 40.9723C69.6396 41.6764 69.0414 42.3065 68.4868 42.9489C67.7918 43.7541 67.1051 44.5664 66.4046 45.3669C66.0806 45.7372 65.073 46.8123 65.4387 46.4832C66.9325 45.1387 68.2028 43.5825 69.8493 42.3988C70.2013 42.1457 70.7068 41.7359 71.167 41.6984C71.5072 41.6706 71.208 42.2424 71.151 42.3572C70.9017 42.8595 70.4674 43.2266 70.2107 43.7133C69.9193 44.2661 71.0738 43.6886 71.1926 43.6302C71.9579 43.2542 72.6789 42.6085 73.5178 42.3988C73.6418 42.3678 73.7187 42.3921 73.6554 42.5299C73.4354 43.0087 72.9969 43.4079 72.6415 43.7837C72.3321 44.1108 72.0158 44.4279 71.6884 44.7368C71.5944 44.8255 71.3297 45.0867 71.4517 45.0439C72.3555 44.7267 73.1044 43.8268 74.1031 43.7421C74.5639 43.7031 74.0169 44.4061 73.9656 44.4778C73.3791 45.2976 72.6432 46.035 71.8611 46.6687C71.5949 46.8843 71.3052 47.1133 70.9975 47.27C70.871 47.3344 71.1722 47.0438 71.279 46.9501C71.5221 46.7368 71.7648 46.5181 72.0306 46.3328C72.3281 46.1255 71.4696 46.7929 71.1798 47.0109C69.8883 47.9827 68.5604 48.9065 67.2266 49.8191C65.9227 50.7112 64.6068 51.6182 63.2062 52.3554C62.8752 52.5296 62.5275 52.6913 62.1764 52.8224C61.9044 52.9238 62.1928 52.3057 62.2115 52.2466C62.5828 51.0783 63.0784 49.9537 63.4493 48.786C63.5874 48.3512 62.7569 49.2233 62.6689 49.3105C62.4831 49.4947 62.291 49.6761 62.1188 49.8734C62.0517 49.9504 62.0779 49.9267 62.0996 49.899C62.3299 49.6045 62.5548 49.306 62.7873 49.0131C63.374 48.2736 63.9668 47.5328 64.6103 46.8414C64.6208 46.8302 65.6466 45.8052 65.6754 46.0674C65.7212 46.4844 65.3044 47.1042 65.1189 47.4427C64.7705 48.0782 64.321 48.6446 63.9355 49.2562C63.443 50.0373 63.2536 50.7874 63.2318 51.6901C63.2162 52.3385 62.9958 52.9356 62.8416 53.558C62.8173 53.6564 62.6268 54.2071 62.8416 54.0313C63.1893 53.7469 63.494 53.4089 63.8235 53.1038C64.1934 52.7614 63.6214 53.8844 63.5645 53.9866C63.5074 54.089 62.943 54.9749 63.1007 54.9269C63.3406 54.8539 63.6528 54.5688 63.9099 54.5879C64.0515 54.5984 63.9791 55.2383 63.9675 55.3299C63.907 55.8061 64.3688 55.2593 64.5592 55.1092C64.8486 54.881 65.2685 54.4403 65.637 54.3448C65.8202 54.2973 65.6138 54.8666 65.5699 54.9301C65.0624 55.6631 66.8149 53.4392 67.6968 53.3085C68.0185 53.2608 67.7545 54.1652 67.6872 54.2968C67.5799 54.5068 67.3935 54.6852 67.3194 54.9077" stroke="#068EF7" stroke-width="3" stroke-linecap="round"/>
<path d="M60.6411 55.0228V54.7926" stroke="#068EF7" stroke-width="3" stroke-linecap="round"/>
<path d="M60.6411 53.0079V55.138" stroke="#068EF7" stroke-width="3" stroke-linecap="round"/>
<path d="M61.1593 48.5173C61.1593 48.6932 61.1593 49.221 61.1593 49.0451C61.1593 48.0237 61.1593 47.0024 61.1593 45.981C61.1593 45.8413 61.0781 45.4586 61.1721 45.562C61.3735 45.7836 61.4335 46.3148 61.5303 46.5855C61.7612 47.2314 61.9264 48.2481 62.4258 48.7476" stroke="#068EF7" stroke-width="3" stroke-linecap="round"/>
<path d="M74.0527 36.6833C74.228 36.6833 73.702 36.6833 73.5267 36.6833C73.3822 36.6833 73.2254 36.719 73.0834 36.7448C73.0526 36.7504 73.028 36.7597 72.9965 36.7597C72.888 36.7597 73.2135 36.7683 73.321 36.783C73.547 36.8139 73.7952 36.8721 74.0219 36.8721C74.0558 36.8721 73.9633 36.8381 73.9339 36.8212C73.8814 36.7909 73.8193 36.7475 73.7579 36.7416C73.4501 36.7123 73.1402 36.705 72.831 36.6918C72.5338 36.6791 72.2353 36.6573 71.9424 36.6027C71.8325 36.5823 71.724 36.5428 71.6126 36.5317C71.2764 36.4981 70.9254 36.5115 70.5829 36.5115C70.2777 36.5115 69.9723 36.4924 69.6645 36.4924C69.492 36.4924 69.3195 36.4924 69.147 36.4924C69.0933 36.4924 69.0447 36.5087 68.9943 36.5115C68.9178 36.5158 68.8149 36.4593 68.7652 36.4924" stroke="#068EF7" stroke-width="3" stroke-linecap="round"/>
<path d="M74.0909 37.9431C74.029 37.9277 74.0718 37.2041 74.0718 37.0651" stroke="#068EF7" stroke-width="3" stroke-linecap="round"/>
<path d="M71.4185 42.028C71.7087 42.0123 71.998 41.9595 72.2881 41.9368C72.9489 41.8851 73.6108 41.8753 74.2733 41.8753C74.588 41.8753 74.9035 41.8817 75.2181 41.8743C75.3173 41.8719 75.4228 41.8636 75.5182 41.8329C76.026 41.6697 76.49 41.4747 76.865 41.0757C76.9979 40.9343 77.0538 40.8732 77.0729 40.6876C77.0792 40.6262 77.0854 40.5668 77.0877 40.5052C77.0892 40.4641 76.9773 40.5295 76.9361 40.5381C76.645 40.5986 76.3394 40.6261 76.0421 40.6155C76.0004 40.614 75.9065 40.4454 75.9042 40.4055C75.9023 40.371 76.0228 40.3495 76.04 40.344C76.3713 40.2384 76.7109 40.1583 77.0432 40.0545C77.3726 39.9515 77.7022 39.8141 78.0421 39.7523C78.2481 39.7148 78.3676 39.615 78.5777 39.6706C78.7133 39.7065 78.8552 39.773 78.9965 39.7756C79.0684 39.7769 79.138 39.7795 79.198 39.8138C79.2679 39.8537 79.3267 39.9031 79.3931 39.9474C79.4153 39.9622 79.4254 39.9928 79.4462 40.0047C79.4777 40.0227 79.5189 40.022 79.5459 40.0471C79.6293 40.1246 79.6666 40.2437 79.6933 40.3504C79.7317 40.504 79.7764 40.6555 79.8364 40.8021C79.9057 40.9715 79.9963 41.0286 80.1599 41.1022C80.3717 41.1976 80.541 41.2778 80.6954 41.4543C80.7397 41.505 80.7605 41.5495 80.7866 41.6081C80.8002 41.6388 80.793 41.6414 80.7802 41.6049C80.7522 41.5249 80.7137 41.4548 80.6763 41.379C80.596 41.2161 80.541 41.0377 80.5766 40.8594C80.5823 40.831 80.617 40.5794 80.6477 40.5794C80.689 40.5794 80.7126 40.7952 80.7155 40.8244C80.7407 41.0763 80.7336 41.3315 80.7336 41.5858C80.7336 41.773 80.7717 41.9565 80.7717 42.1425" stroke="#068EF7" stroke-width="3" stroke-linecap="round"/>
<path d="M79.2256 40.3483C79.2256 40.1681 79.2162 40.033 79.3062 39.871C79.3502 39.7919 79.4326 39.7333 79.4695 39.6462C79.4816 39.6175 79.5331 39.5316 79.5501 39.5656" stroke="#068EF7" stroke-width="3" stroke-linecap="round"/>
<path d="M83.215 47.3727C83.194 47.1305 83.0274 46.8778 82.9245 46.6622C82.7802 46.3604 82.6376 46.0613 82.5013 45.7555C82.4244 45.5829 82.3583 45.418 82.3327 45.2306C82.3152 45.102 82.3233 44.9733 82.3083 44.8446C82.2866 44.658 82.2175 44.4982 82.1747 44.3175C82.1054 44.0248 82.0441 43.7332 81.9361 43.4511C81.7698 43.0168 81.688 42.6176 81.688 42.1531C81.688 42.0068 81.7071 41.8622 81.7071 41.7162C81.7071 41.6984 81.6922 41.5968 81.7261 41.6272C81.9509 41.8283 82.0555 42.1556 82.1843 42.4204C82.2922 42.6423 82.3689 42.8833 82.4982 43.0948C82.5583 43.1933 82.671 43.2663 82.7187 43.3737C82.9122 43.809 83.0337 44.2964 83.2818 44.7099C83.3938 44.8966 83.5084 45.0769 83.601 45.273C83.7129 45.5097 83.7767 45.8038 83.8259 46.0599C83.8694 46.287 83.9064 46.5178 83.9595 46.7428C83.9957 46.8962 84.0113 47.0513 84.0729 47.1977C84.0825 47.2204 84.1539 47.3554 84.1122 47.3345" stroke="#068EF7" stroke-width="3" stroke-linecap="round"/>
<path d="M81.2489 56.8405C81.3785 56.6527 81.5447 56.4973 81.688 56.3209C81.8682 56.0989 82.0074 55.8874 82.1069 55.6188C82.1816 55.4171 82.2541 55.2187 82.3083 55.0101C82.3318 54.9197 82.3501 54.825 82.39 54.7408C82.4738 54.5639 82.5277 54.3843 82.6509 54.2275C82.6808 54.1894 82.6997 54.1766 82.6997 54.2339C82.6997 54.419 82.7117 54.6078 82.6784 54.7906C82.6313 55.0498 82.5508 55.3129 82.4939 55.5616C82.4832 55.6085 82.4897 55.7539 82.4897 55.7058C82.4897 55.5443 82.6056 55.3805 82.6615 55.2339C82.8243 54.8065 82.8908 54.3331 83.249 54.0154C83.342 53.9329 83.4181 53.8675 83.53 53.8139C83.5831 53.7885 83.6667 53.7506 83.7071 53.7058C83.8108 53.5905 83.7495 53.2053 83.7495 53.0716C83.7495 52.8668 83.6759 52.7111 83.6265 52.5181C83.606 52.438 83.5586 52.342 83.5586 52.2593C83.5586 52.1147 83.6409 51.9882 83.741 51.8881C83.8621 51.7671 83.9583 51.725 83.9107 51.5414C83.8399 51.2683 83.6226 50.968 83.425 50.7704C83.3937 50.7391 83.0068 50.4255 82.987 50.4947C82.971 50.5509 82.986 50.6332 82.986 50.6898C82.986 51.1457 82.7952 51.5706 82.6466 51.9942C82.6005 52.1259 82.5487 52.2554 82.5013 52.3866C82.4926 52.4108 82.4706 52.4834 82.4706 52.4576C82.4706 52.4182 82.4637 52.3913 82.4515 52.3547" stroke="#068EF7" stroke-width="3" stroke-linecap="round"/>
<path d="M82.4515 52.3547C82.4515 51.3812 82.5159 50.4003 82.3476 49.4385C82.3208 49.2854 82.2663 49.1416 82.2426 48.9878C82.2324 48.9215 82.8128 48.9669 82.8704 48.9793C83.1938 49.0492 83.4831 49.1819 83.8216 49.1861C83.9661 49.1879 84.0261 49.1712 84.1313 49.0716C84.1826 49.023 84.211 48.9486 84.2458 48.8807C84.253 48.8667 84.284 48.7865 84.284 48.8086C84.284 48.9337 84.3025 49.0583 84.3031 49.184C84.306 49.8061 84.3031 50.4283 84.3031 51.0504C84.3031 51.1709 84.3173 51.2592 84.3423 51.3717C84.3509 51.4103 84.3714 51.4928 84.389 51.5244C84.4012 51.5465 84.3967 51.6688 84.4102 51.6283C84.477 51.4278 84.4919 51.206 84.5332 50.9995C84.5866 50.7323 84.6577 50.4637 84.6806 50.1914C84.6983 49.9807 84.7272 49.7745 84.7463 49.5636C84.7624 49.3871 84.771 49.2102 84.7803 49.0334C84.7824 48.9933 84.8871 48.9164 84.9139 48.8807" stroke="#068EF7" stroke-width="3" stroke-linecap="round"/>
<path d="M83.5204 47.43C83.5557 47.3243 83.9413 47.312 84.0443 47.2667C84.123 47.2321 84.2275 47.1798 84.2925 47.1246C84.371 47.0578 84.529 47.0492 84.5979 46.9803C84.646 46.9322 84.5923 46.7133 84.5703 46.6474" stroke="#068EF7" stroke-width="3" stroke-linecap="round"/>
<path d="M63.9587 59.1398C63.762 59.1398 63.5654 59.1398 63.3687 59.1398C63.245 59.1398 63.2996 59.2838 63.2348 59.363C63.1161 59.508 62.6971 59.2704 62.5109 59.355C62.0515 59.5638 62.018 58.8745 61.8923 58.6232" stroke="#068EF7" stroke-width="3" stroke-linecap="round"/>
<path d="M61.2398 57.3485C61.2398 57.5147 61.1497 57.6954 61.0569 57.8294C60.9956 57.9179 60.8665 57.9327 60.7826 57.9886" stroke="#068EF7" stroke-width="3" stroke-linecap="round"/>
<path d="M65.3848 56.9828C65.3848 57.7256 65.3848 58.4683 65.3848 59.2111C65.3848 59.4946 65.4319 60.3441 65.4153 60.0611C65.4096 59.9648 65.356 60.2451 65.3543 60.2541C65.3359 60.3536 65.3198 60.4889 65.2697 60.5792C65.2287 60.653 65.0088 60.6408 64.9378 60.6537C64.8665 60.6668 64.5745 60.7011 64.8091 60.7011C65.2502 60.7011 65.6942 60.6869 66.1332 60.7384C66.3903 60.7686 66.6422 60.8231 66.9019 60.8231C66.9246 60.8231 66.6032 60.8144 66.5497 60.8095C66.2517 60.7823 65.9592 60.7336 65.6659 60.6774C65.5087 60.6473 65.4067 60.6681 65.2324 60.6944C65.1249 60.7106 64.9887 60.6706 64.8971 60.7316" stroke="#068EF7" stroke-width="3" stroke-linecap="round"/>
<path d="M70.8099 62.2251C70.8099 60.9427 70.8085 59.6604 70.8099 58.378C70.811 57.4345 70.7998 56.4868 70.8726 55.5452C70.8905 55.313 70.9262 55.0842 70.9488 54.8527C70.9529 54.81 70.9823 54.6447 70.8963 54.7528C70.4484 55.3156 70.1145 56.0154 69.7635 56.6374C69.1465 57.7308 68.5526 58.8375 68.0025 59.9663C67.7976 60.3869 67.5894 60.811 67.4167 61.2464C67.4019 61.2836 67.357 61.3921 67.3828 61.3615C67.5126 61.2074 67.6351 61.0435 67.7621 60.8874C68.5667 59.8983 69.3584 58.8985 70.175 57.9192C70.7084 57.2794 71.242 56.5648 71.9105 56.0549C71.9798 56.002 72.3478 55.6927 72.4033 55.9059C72.4715 56.1685 72.4343 56.5102 72.3931 56.7745C72.3764 56.8819 72.2549 57.1727 72.3305 57.0946C72.4471 56.9738 72.5521 56.7997 72.6488 56.6696C72.9727 56.2335 73.2979 55.7984 73.6241 55.3641C74.0755 54.7629 74.5163 54.1455 75.0142 53.5811C75.0935 53.4913 75.3156 53.2632 75.3139 53.383C75.3097 53.6934 75.0954 54.0895 74.9804 54.3583C74.4803 55.5265 73.8854 56.6519 73.3786 57.8176C73.2869 58.0284 73.5792 57.7232 73.597 57.7075C74.2267 57.1524 74.8059 56.5432 75.4189 55.9702C75.5125 55.8827 75.7035 55.7073 75.8118 55.6214C75.8524 55.5892 75.8942 55.5583 75.9387 55.5317C75.9754 55.5098 76.0632 55.452 76.0234 55.5554C75.9028 55.8691 75.6086 56.1909 75.4155 56.4511C74.982 57.0356 74.5351 57.6101 74.0847 58.1816C73.5662 58.8394 73.0586 59.5108 72.5201 60.1525C72.4388 60.2495 72.2092 60.5417 72.2543 60.4235C72.3435 60.1893 72.7751 59.7729 72.9028 59.6243C74.0034 58.3425 75.1419 57.0889 76.3333 55.8907C76.8511 55.3698 77.4115 54.74 78.0705 54.3854C78.5739 54.1145 77.9579 55.0529 77.9385 55.083C77.28 56.1055 76.4865 57.0504 75.6797 57.9581C75.5042 58.1555 75.3679 58.3048 75.192 58.4949C75.0914 58.6035 74.8077 58.9419 74.8839 58.8149C74.9991 58.6228 75.2798 58.3874 75.4206 58.246C75.9707 57.6935 76.5383 57.158 77.1155 56.634C77.819 55.9954 78.5342 55.3235 79.3676 54.8544C79.4535 54.806 79.7502 54.6048 79.8789 54.6427C80.0138 54.6825 79.8008 54.9197 79.7164 55.0322C79.2065 55.712 78.5274 56.2733 77.9012 56.8406C77.3572 57.3333 76.8101 57.8226 76.2571 58.3052C76.2422 58.3182 75.7956 58.7026 75.9337 58.5914C76.6143 58.0434 77.3196 57.5177 78.0231 56.9997C78.4799 56.6634 78.9506 56.3143 79.4725 56.0837C79.8617 55.9117 79.4726 56.2577 79.3777 56.3495C77.9391 57.7414 76.3908 59.095 74.7162 60.1983C74.3378 60.4476 74.6885 60.1741 74.8263 60.0713C75.4959 59.5712 76.1656 59.0697 76.8497 58.5897C77.0667 58.4374 77.2794 58.2906 77.5033 58.1494C77.6338 58.0671 77.8621 57.893 78.0333 57.8836C78.1478 57.8773 77.9385 58.099 77.8555 58.1782C77.4963 58.5211 77.0929 58.8224 76.6888 59.1095C75.9772 59.6151 75.2284 60.0656 74.4639 60.4861C74.253 60.6021 74.0399 60.7138 73.8273 60.8264C73.8001 60.8408 73.6508 60.9329 73.8002 60.8298C74.002 60.6906 76.0188 59.083 76.1131 59.2009C76.1973 59.3062 75.214 60.0783 75.1599 60.1221C74.6776 60.5116 74.1811 60.8846 73.6613 61.2227C73.5659 61.2847 73.3426 61.4868 73.2126 61.4868C73.177 61.4868 73.2553 61.4291 73.2821 61.4055C73.4008 61.3011 73.5261 61.2037 73.6529 61.1092C73.8968 60.9275 74.1492 60.7615 74.4165 60.6165C74.4715 60.5867 74.7332 60.4503 74.5723 60.6131C74.1205 61.0703 73.5995 61.4759 73.0602 61.8238C72.709 62.0504 73.7044 61.2896 74.0457 61.0483C74.2129 60.9301 74.3889 60.8344 74.5689 60.7384C74.7486 60.6426 74.2808 61.0275 74.1219 61.1549C73.7609 61.4445 73.3927 61.7307 73.0044 61.9829C72.9587 62.0126 72.4877 62.3422 72.6843 62.0862C73.1017 61.5429 73.6 61.0509 74.0711 60.5555C74.7249 59.8681 75.4 59.2222 76.1131 58.5981" stroke="#068EF7" stroke-width="3" stroke-linecap="round"/>
<path d="M81.9345 57.1657C81.8842 57.1757 81.8515 57.2201 81.816 57.2537C81.6438 57.4167 81.4537 57.5533 81.2606 57.6906C80.568 58.1829 79.8928 58.6855 79.2253 59.2111C78.9939 59.3933 78.7713 59.6076 78.5277 59.7733C78.1244 60.0475 79.268 59.1382 79.6419 58.825C80.1578 58.3928 80.6678 57.9489 81.2064 57.545C81.2321 57.5257 81.3723 57.4361 81.2572 57.4772C81.096 57.5348 80.9538 57.7212 80.8237 57.826C80.4103 58.1594 80.0132 58.5059 79.5877 58.825C78.8157 59.404 78.082 60.0428 77.2899 60.5911C77.1815 60.6661 77.3323 60.5742 77.3645 60.5538C77.8232 60.2636 78.2797 60.0053 78.7868 59.8071C79.1369 59.6702 79.5152 59.5702 79.84 59.3753C79.944 59.3129 80.0241 59.1842 80.1363 59.1468" stroke="#068EF7" stroke-width="3" stroke-linecap="round"/>
<path d="M74.6502 61.1888C74.6502 61.1502 74.6353 61.2999 74.6671 61.309C74.7372 61.329 74.84 61.3107 74.911 61.3107C75.0376 61.3107 75.1469 61.3287 75.1988 61.4326" stroke="#068EF7" stroke-width="3" stroke-linecap="round"/>
<path d="M73.5225 62.1336C73.5846 62.1492 73.553 62.4616 73.553 62.5298" stroke="#068EF7" stroke-width="3" stroke-linecap="round"/>
<path d="M71.5109 62.6822C71.5109 62.7986 71.5414 62.905 71.5414 63.0175" stroke="#068EF7" stroke-width="3" stroke-linecap="round"/>
<path d="M65.5372 60.3964C65.5372 60.6079 65.5125 61.1298 65.781 61.2193" stroke="#068EF7" stroke-width="3" stroke-linecap="round"/>
<path d="M69.6518 59.9697C69.6518 60.3461 69.6518 60.7226 69.6518 61.0991C69.6518 61.3199 69.6725 61.5532 69.6145 61.7679C69.5585 61.9751 69.495 62.1641 69.2403 62.1641C69.0441 62.1641 68.8418 62.1758 68.6765 62.286" stroke="#068EF7" stroke-width="3" stroke-linecap="round"/>
<g clip-path="url(#clip0_1_2)">
<path d="M57.5159 46.9992C57.4886 46.9746 57.4632 46.9548 57.433 46.9347" stroke="#068EF7" stroke-width="3" stroke-linecap="round"/>
<path d="M55.8242 45.4688C55.8353 45.4688 55.8464 45.4688 55.8574 45.4688C55.8719 45.4688 55.8672 45.4825 55.8672 45.4941C55.8672 45.5057 55.8748 45.5 55.8867 45.5C55.8948 45.5 55.9044 45.5015 55.9119 45.498C55.9219 45.4935 55.9179 45.4987 55.9227 45.503C55.9244 45.5045 55.9583 45.4993 55.9629 45.498C55.9782 45.494 55.9958 45.4961 56.0115 45.4961C56.0343 45.4961 56.0352 45.4903 56.0352 45.5039" stroke="black" stroke-linecap="square"/>
</g>
<path d="M15 46V53H16.0345V55H17.069V57H18.1034V59H19.1379V60H20.1724V61H21.2069H22.2414V62H23.2759H24.3103V63H26.3793V64H33.6207V63H35.6897V62H37.7586V61H39.8276V60H40.8621V59H41.8966V57H42.931V55H43.9655V53H45V46H43.9655M15 53H16.0345V55H17.069V57H18.1034V59H19.1379V60H20.1724V61H21.2069H22.2414V62H23.2759H24.3103V63H26.3793V64H33.6207V63H35.6897V62H37.7586V61H39.8276V60H40.8621V59H41.8966V57H42.931V55H43.9655V53H45" stroke="#068EF7"/>
<path d="M45 46H43.9655V44H42.931V42H41.8966V40H40.8621V39H39.8276V38H38.7931H37.7586V37H36.7241H35.6897V36H33.6207V35H26.3793V36H24.3103V37H22.2414V38H20.1724V39H19.1379V40H18.1034V42H17.069V44H16.0345V46H15" stroke="#068EF7"/>
<path d="M18.0292 54.9653C18.0292 54.2719 18.0943 53.5862 17.8117 52.9503C17.6827 52.6601 17.4901 52.4087 17.3831 52.0995C17.3174 51.9097 17.2672 51.3887 17.1368 51.2583C17.1356 51.2571 17.0446 52.0286 16.9609 52.1123C16.828 52.2452 16.8202 51.2905 16.8202 51.1976C16.8202 50.7562 16.8202 50.3148 16.8202 49.8734C16.8202 49.4543 16.8015 48.9553 16.9225 48.5621C17.0215 48.2404 17.0504 47.8651 17.0504 47.5258C17.0504 47.4101 17.0482 47.292 16.9673 47.1996C16.9512 47.1812 16.866 47.1154 16.8905 47.0908C16.9648 47.0165 17.4072 47.0205 17.511 47.0205C17.9984 47.0205 18.4834 47.046 18.9631 46.9501C19.3958 46.8636 19.8389 46.8407 20.2744 46.7774C20.5453 46.738 20.8808 46.7957 21.138 46.7038C21.3222 46.6381 21.5789 46.6175 21.7745 46.6175C22.4239 46.6175 23.081 46.5241 23.7319 46.5055C25.8599 46.4447 27.9849 46.6175 30.1127 46.6175C31.5451 46.6175 32.9453 46.7077 34.3729 46.787C35.2579 46.8362 36.1534 47.0781 37.0276 47.0781" stroke="#068EF7" stroke-width="3" stroke-linecap="round"/>
<path d="M37.7184 52.4321C37.6765 52.516 37.5078 52.4891 37.437 52.4897C36.9051 52.4946 36.3729 52.4897 35.841 52.4897C33.8654 52.4897 31.8899 52.4897 29.9144 52.4897C28.313 52.4897 26.7117 52.4897 25.1104 52.4897C23.9695 52.4897 22.8049 52.5584 21.6689 52.4321C21.3464 52.3963 20.8638 52.3936 20.5943 52.1731C20.4757 52.0761 20.4102 51.9404 20.3064 51.8309C19.7448 51.238 19.339 50.425 19.1934 49.624C19.0639 48.9119 18.2274 49.191 17.7285 48.9075C17.4155 48.7297 17.1338 48.6007 16.8777 48.3446C16.8114 48.2782 16.5436 48.0217 16.5899 48.1143" stroke="#068EF7" stroke-width="3" stroke-linecap="round"/>
<path d="M24.1317 57.153C23.3812 57.1189 22.6796 56.6952 21.9536 56.5293C21.5467 56.4363 21.1075 56.4045 20.6902 56.4045C20.3604 56.4045 20.1053 56.4036 19.8011 56.3022C19.6432 56.2496 19.4914 56.2067 19.3309 56.1711C19.2678 56.157 19.251 56.0674 19.1806 56.0591C19.0084 56.0389 18.3923 55.5986 18.6049 55.5986" stroke="#068EF7" stroke-width="3" stroke-linecap="round"/>
<path d="M26.8951 59.9164C27.127 59.8874 26.8157 57.9677 26.7991 57.863C26.6008 56.6109 26.1911 55.4006 25.9004 54.1689C25.6331 53.0364 25.4562 51.8886 25.2959 50.737C25.1601 49.7618 25.1104 48.7785 25.1104 47.7945C25.1104 47.6002 25.0786 47.3729 25.1136 47.1804C25.173 46.8537 25.3568 47.8008 25.4334 48.1239C26.0232 50.6108 26.094 53.1877 26.1754 55.7297C26.1882 56.1273 26.2042 57.3205 26.2042 56.9227C26.2042 55.2239 26.2396 53.5253 26.3705 51.8309C26.5192 49.9066 26.7269 47.9453 27.2053 46.0706C27.2163 46.0276 27.6279 44.434 27.8866 44.9607C28.0108 45.2137 28.1402 45.8995 28.1744 46.0993C28.3858 47.3342 28.4972 48.5889 28.5742 49.8383C28.7011 51.8957 28.6798 53.9574 28.6798 56.0175C28.6798 56.0294 28.6579 57.2375 28.6222 56.8651C28.4586 55.1572 28.5675 53.3911 28.5998 51.6805C28.6326 49.9447 28.6708 48.2074 28.942 46.4896C28.9775 46.2648 29.0554 45.6062 29.1084 45.8275C29.2369 46.3652 29.1873 47.0439 29.2107 47.5834C29.3517 50.8365 29.3999 54.112 29.876 57.3385C30.0013 58.1878 29.948 57.0402 29.9495 56.8491C29.9714 54.2019 29.9981 51.5447 30.2054 48.9043C30.2455 48.394 30.284 48.0137 30.3461 47.5194C30.3615 47.3976 30.3782 46.777 30.522 46.6559C30.5758 46.6106 31.0069 48.53 31.0178 48.5877C31.2483 49.8121 31.4754 51.0373 31.7182 52.2594C31.7811 52.5758 31.8202 52.93 31.9229 53.2381C32.0076 53.4922 31.9807 52.7056 31.9997 52.4385C32.1185 50.7679 32.3292 49.1022 32.617 47.4523C32.7378 46.7595 32.8168 45.9076 33.1127 45.255C33.2854 44.8742 33.4362 46.0366 33.4902 46.4512C33.7421 48.3882 33.8899 50.3432 34.0243 52.2914C34.0655 52.8896 34.0693 54.6881 34.0914 54.0889C34.1288 53.0813 34.2004 52.0767 34.2961 51.0728C34.3891 50.0982 34.5115 49.1276 34.6544 48.1591C34.671 48.0465 34.7181 47.4233 34.7823 47.884C34.9734 49.2557 34.8974 50.6734 34.8974 52.0547C34.8974 52.6651 34.9387 51.5722 34.939 51.5686C35.08 49.7468 35.3048 47.9253 35.6363 46.1281C35.6456 46.0773 35.901 44.5344 36.0361 44.5577C36.2438 44.5935 36.2734 46.6966 36.2791 46.7902C36.444 49.455 36.5662 52.1252 36.6821 54.7926C36.7884 57.2366 36.6617 49.8942 36.8549 47.4555C36.9021 46.8588 36.9281 46.1851 37.1075 45.6068C37.1426 45.4938 37.1511 45.8403 37.1555 45.9586C37.1811 46.6407 37.1922 47.3231 37.1971 48.0056C37.2067 49.3516 37.2137 50.6962 37.2451 52.0419C37.2474 52.144 37.1954 53.7347 37.309 52.7776C37.5297 50.9191 37.8366 49.0691 38.2238 47.238C38.4815 46.0191 38.7239 44.7352 39.1321 43.5534C39.1465 43.5119 39.2004 43.4097 39.2153 43.4511C39.3173 43.7357 39.267 44.2313 39.2696 44.5034C39.2865 46.2441 39.2728 47.9855 39.2728 49.7263C39.2728 51.1934 39.3304 55.5944 39.3304 54.1273C39.3304 51.5361 39.3968 48.9559 39.5255 46.368C39.546 45.9568 39.5823 44.7223 39.5607 45.1334C39.5064 46.164 39.3225 47.189 39.2281 48.2167C39.1383 49.1939 39.0822 50.1737 39.017 51.1528C39.0163 51.1632 38.9746 52.0789 38.8698 51.6773C38.5729 50.5391 38.5377 49.2816 38.4125 48.1175C38.2604 46.7042 38.1101 45.2892 37.9839 43.8733C37.9384 43.3634 38.0149 43.1132 37.4721 43.0193C36.3249 42.8207 35.1358 42.8039 33.9763 42.7314C32.7138 42.6525 31.4518 42.5299 30.1862 42.5299C29.5307 42.5299 28.7677 42.6038 28.1297 42.4148C28.0595 42.394 27.8858 42.4195 27.9186 42.354C27.99 42.2111 29.0036 42.1277 29.0892 42.1142C30.6357 41.8693 32.2042 41.7528 33.7684 41.708C35.0764 41.6705 36.4321 41.6456 37.7312 41.8391C38.2036 41.9094 38.2429 41.9521 37.7248 41.9542C36.6449 41.9588 35.5648 41.9542 34.4848 41.9542C32.8136 41.9542 31.1376 41.9922 29.4666 41.9542C28.6007 41.9346 31.1449 41.4969 32.0061 41.4041C32.6708 41.3325 33.3373 41.321 34.0051 41.321C34.9727 41.321 33.1122 41.1148 33.0967 41.1131C30.7266 40.8408 28.3049 40.7665 25.9516 40.3742C25.5463 40.3067 25.757 40.2235 26.0443 40.1567C27.2197 39.8835 28.4709 39.8675 29.6713 39.8369C30.3701 39.8191 31.078 39.7992 31.7758 39.8529C32.3551 39.8975 31.4936 39.9247 31.424 39.9265C30.3006 39.9551 29.1697 39.9142 28.0529 39.7889C27.3614 39.7113 26.4624 39.6953 25.8076 39.4243C25.62 39.3467 26.4099 39.3068 26.4217 39.306C27.1869 39.252 27.952 39.241 28.7182 39.2804C29.211 39.3058 29.7087 39.3383 30.1958 39.4211C30.2982 39.4385 30.6601 39.5184 30.3301 39.4531C29.5905 39.3068 28.7942 39.2116 28.0721 39.0053C27.861 38.945 28.4917 38.87 28.7086 38.8358C30.0404 38.6261 31.3653 38.3967 32.7097 38.2793C33.5689 38.2043 34.4325 38.1506 35.294 38.1098C35.3533 38.107 35.9753 38.092 35.8634 38.065C34.5312 37.7434 33.0549 37.7902 31.6927 37.7068C31.6908 37.7067 31.2182 37.6918 31.2289 37.6652C31.2549 37.6001 31.6194 37.5967 31.6735 37.5916C31.8322 37.5769 31.9996 37.5998 32.1564 37.5756C32.3382 37.5477 31.8215 37.4153 31.6415 37.3773C30.8122 37.2023 29.9475 37.1759 29.102 37.1759C28.4108 37.1759 30.4834 37.1252 31.1745 37.1183C31.2197 37.1178 31.616 37.0972 31.3408 37.1535C30.7159 37.2813 30.0743 37.3373 29.441 37.4061C28.7858 37.4774 28.1294 37.536 27.474 37.6044C27.3218 37.6203 26.9024 37.6616 27.3269 37.6044C27.7479 37.5478 28.1689 37.5002 28.5838 37.4061C28.7945 37.3584 29.046 37.2398 29.2651 37.2398C30.0527 37.2398 27.7183 37.5565 26.9335 37.6236C26.0985 37.695 27.3124 37.5124 27.5156 37.4637C27.7732 37.4019 28.0468 37.3362 28.2832 37.211C28.3221 37.1904 27.7718 37.1759 27.6755 37.1759C27.0315 37.1759 26.3817 37.2334 25.7437 37.2334" stroke="#068EF7" stroke-width="3" stroke-linecap="round"/>
<path d="M17.6837 46.0993C17.6837 45.6564 17.6122 44.9105 17.8852 44.5161C17.9853 44.3716 18.1614 44.2234 18.2147 44.0588C18.2524 43.9422 18.4226 43.5854 18.5185 43.5087C18.615 43.4314 18.5729 43.212 18.6177 43.1057C18.7077 42.8918 18.7402 42.6572 18.8351 42.4436C18.961 42.1605 19.1399 41.9138 19.2669 41.6344C19.6029 40.8953 20.3664 40.391 20.9205 39.8369C21.6 39.1574 22.5929 38.6867 23.4984 38.3848" stroke="#068EF7" stroke-width="3" stroke-linecap="round"/>
<path d="M25.3982 39.306C24.9475 39.3285 24.4505 39.5634 24.0485 39.7474C23.2495 40.113 22.55 40.6486 22.0111 41.3433C21.4922 42.0125 21.243 42.9018 21.1252 43.7261C21.06 44.1823 20.9591 44.52 20.7638 44.9255C20.6725 45.115 20.4407 45.6931 20.4727 45.4853C20.4957 45.3357 20.6435 45.1477 20.7158 45.0247C20.9456 44.6337 21.1549 44.2366 21.3651 43.8349C21.7636 43.073 22.1651 42.3136 22.5645 41.5512C22.7265 41.2419 23.2506 41.0306 23.524 40.854C24.0897 40.4885 24.6503 40.1145 25.2191 39.7537C25.2392 39.741 25.7369 39.4073 25.507 39.6706C24.235 41.1269 22.797 42.4402 21.5026 43.8797C20.6378 44.8413 19.6772 45.7862 18.9567 46.867C18.9415 46.8897 18.6868 47.3148 18.6177 47.238C18.427 47.0261 19.0432 46.2516 19.1486 46.1057C20.1466 44.7239 21.5698 43.671 22.9291 42.6515C23.2046 42.4448 23.6351 42.2837 23.8438 41.999C24.1883 41.5293 24.5847 41.065 24.9856 40.6429C25.218 40.3983 25.4407 40.1886 25.2223 40.6877C24.4539 42.444 23.2785 44.0903 22.1679 45.6452C22.0044 45.8741 21.8086 46.1079 21.6817 46.3616C21.5364 46.6523 22.1547 45.9157 22.3854 45.6868C23.9755 44.1085 25.5084 42.4291 27.2341 40.9947C27.2444 40.9861 27.653 40.7208 27.6499 40.7261C27.4921 40.9953 27.2134 41.2518 27.0102 41.4809C26.0124 42.6058 24.9103 43.6586 23.9526 44.8168C23.8736 44.9123 23.6546 45.2086 23.7479 45.127C24.177 44.7516 24.5918 44.358 25.0208 43.982C25.8678 43.2397 26.722 42.5041 27.5859 41.7815C28.0228 41.4161 28.5336 40.8751 29.0892 40.6813C29.3757 40.5813 29.1907 40.8653 29.118 40.9723C28.6396 41.6764 28.0414 42.3065 27.4868 42.9489C26.7918 43.7541 26.1051 44.5664 25.4046 45.3669C25.0806 45.7372 24.073 46.8123 24.4387 46.4832C25.9325 45.1387 27.2028 43.5825 28.8493 42.3988C29.2013 42.1457 29.7068 41.7359 30.167 41.6984C30.5072 41.6706 30.208 42.2424 30.151 42.3572C29.9017 42.8595 29.4674 43.2266 29.2107 43.7133C28.9193 44.2661 30.0738 43.6886 30.1926 43.6302C30.9579 43.2542 31.6789 42.6085 32.5178 42.3988C32.6418 42.3678 32.7187 42.3921 32.6554 42.5299C32.4354 43.0087 31.9969 43.4079 31.6415 43.7837C31.3321 44.1108 31.0158 44.4279 30.6884 44.7368C30.5944 44.8255 30.3297 45.0867 30.4517 45.0439C31.3555 44.7267 32.1044 43.8268 33.1031 43.7421C33.5639 43.7031 33.0169 44.4061 32.9656 44.4778C32.3791 45.2976 31.6432 46.035 30.8611 46.6687C30.5949 46.8843 30.3052 47.1133 29.9975 47.27C29.871 47.3344 30.1722 47.0438 30.279 46.9501C30.5221 46.7368 30.7648 46.5181 31.0306 46.3328C31.3281 46.1255 30.4696 46.7929 30.1798 47.0109C28.8883 47.9827 27.5604 48.9065 26.2266 49.8191C24.9227 50.7112 23.6068 51.6182 22.2062 52.3554C21.8752 52.5296 21.5275 52.6913 21.1764 52.8224C20.9044 52.9238 21.1928 52.3057 21.2115 52.2466C21.5828 51.0783 22.0784 49.9537 22.4493 48.786C22.5874 48.3512 21.7569 49.2233 21.6689 49.3105C21.4831 49.4947 21.291 49.6761 21.1188 49.8734C21.0517 49.9504 21.0779 49.9267 21.0996 49.899C21.3299 49.6045 21.5548 49.306 21.7873 49.0131C22.374 48.2736 22.9668 47.5328 23.6103 46.8414C23.6208 46.8302 24.6466 45.8052 24.6754 46.0674C24.7212 46.4844 24.3044 47.1042 24.1189 47.4427C23.7705 48.0782 23.321 48.6446 22.9355 49.2562C22.443 50.0373 22.2536 50.7874 22.2318 51.6901C22.2162 52.3385 21.9958 52.9356 21.8416 53.558C21.8173 53.6564 21.6268 54.2071 21.8416 54.0313C22.1893 53.7469 22.494 53.4089 22.8235 53.1038C23.1934 52.7614 22.6214 53.8844 22.5645 53.9866C22.5074 54.089 21.943 54.9749 22.1007 54.9269C22.3406 54.8539 22.6528 54.5688 22.9099 54.5879C23.0515 54.5984 22.9791 55.2383 22.9675 55.3299C22.907 55.8061 23.3688 55.2593 23.5592 55.1092C23.8486 54.881 24.2685 54.4403 24.637 54.3448C24.8202 54.2973 24.6138 54.8666 24.5699 54.9301C24.0624 55.6631 25.8149 53.4392 26.6968 53.3085C27.0185 53.2608 26.7545 54.1652 26.6872 54.2968C26.5799 54.5068 26.3935 54.6852 26.3194 54.9077" stroke="#068EF7" stroke-width="3" stroke-linecap="round"/>
<path d="M19.6411 55.0228V54.7926" stroke="#068EF7" stroke-width="3" stroke-linecap="round"/>
<path d="M19.6411 53.0079V55.138" stroke="#068EF7" stroke-width="3" stroke-linecap="round"/>
<path d="M20.1593 48.5173C20.1593 48.6932 20.1593 49.221 20.1593 49.0451C20.1593 48.0237 20.1593 47.0024 20.1593 45.981C20.1593 45.8413 20.0781 45.4586 20.1721 45.562C20.3735 45.7836 20.4335 46.3148 20.5303 46.5855C20.7612 47.2314 20.9264 48.2481 21.4258 48.7476" stroke="#068EF7" stroke-width="3" stroke-linecap="round"/>
<path d="M33.0527 36.6833C33.228 36.6833 32.702 36.6833 32.5267 36.6833C32.3822 36.6833 32.2254 36.719 32.0834 36.7448C32.0526 36.7504 32.028 36.7597 31.9965 36.7597C31.888 36.7597 32.2135 36.7683 32.321 36.783C32.547 36.8139 32.7952 36.8721 33.0219 36.8721C33.0558 36.8721 32.9633 36.8381 32.9339 36.8212C32.8814 36.7909 32.8193 36.7475 32.7579 36.7416C32.4501 36.7123 32.1402 36.705 31.831 36.6918C31.5338 36.6791 31.2353 36.6573 30.9424 36.6027C30.8325 36.5823 30.724 36.5428 30.6126 36.5317C30.2764 36.4981 29.9254 36.5115 29.5829 36.5115C29.2777 36.5115 28.9723 36.4924 28.6645 36.4924C28.492 36.4924 28.3195 36.4924 28.147 36.4924C28.0933 36.4924 28.0447 36.5087 27.9943 36.5115C27.9178 36.5158 27.8149 36.4593 27.7652 36.4924" stroke="#068EF7" stroke-width="3" stroke-linecap="round"/>
<path d="M33.0909 37.9431C33.029 37.9277 33.0718 37.2041 33.0718 37.0651" stroke="#068EF7" stroke-width="3" stroke-linecap="round"/>
<path d="M30.4185 42.028C30.7087 42.0123 30.998 41.9595 31.2881 41.9368C31.9489 41.8851 32.6108 41.8753 33.2733 41.8753C33.588 41.8753 33.9035 41.8817 34.2181 41.8743C34.3173 41.8719 34.4228 41.8636 34.5182 41.8329C35.026 41.6697 35.49 41.4747 35.865 41.0757C35.9979 40.9343 36.0538 40.8732 36.0729 40.6876C36.0792 40.6262 36.0854 40.5668 36.0877 40.5052C36.0892 40.4641 35.9773 40.5295 35.9361 40.5381C35.645 40.5986 35.3394 40.6261 35.0421 40.6155C35.0004 40.614 34.9065 40.4454 34.9042 40.4055C34.9023 40.371 35.0228 40.3495 35.04 40.344C35.3713 40.2384 35.7109 40.1583 36.0432 40.0545C36.3726 39.9515 36.7022 39.8141 37.0421 39.7523C37.2481 39.7148 37.3676 39.615 37.5777 39.6706C37.7133 39.7065 37.8552 39.773 37.9965 39.7756C38.0684 39.7769 38.138 39.7795 38.198 39.8138C38.2679 39.8537 38.3267 39.9031 38.3931 39.9474C38.4153 39.9622 38.4254 39.9928 38.4462 40.0047C38.4777 40.0227 38.5189 40.022 38.5459 40.0471C38.6293 40.1246 38.6666 40.2437 38.6933 40.3504C38.7317 40.504 38.7764 40.6555 38.8364 40.8021C38.9057 40.9715 38.9963 41.0286 39.1599 41.1022C39.3717 41.1976 39.541 41.2778 39.6954 41.4543C39.7397 41.505 39.7605 41.5495 39.7866 41.6081C39.8002 41.6388 39.793 41.6414 39.7802 41.6049C39.7522 41.5249 39.7137 41.4548 39.6763 41.379C39.596 41.2161 39.541 41.0377 39.5766 40.8594C39.5823 40.831 39.617 40.5794 39.6477 40.5794C39.689 40.5794 39.7126 40.7952 39.7155 40.8244C39.7407 41.0763 39.7336 41.3315 39.7336 41.5858C39.7336 41.773 39.7717 41.9565 39.7717 42.1425" stroke="#068EF7" stroke-width="3" stroke-linecap="round"/>
<path d="M38.2256 40.3483C38.2256 40.1681 38.2162 40.033 38.3062 39.871C38.3502 39.7919 38.4326 39.7333 38.4695 39.6462C38.4816 39.6175 38.5331 39.5316 38.5501 39.5656" stroke="#068EF7" stroke-width="3" stroke-linecap="round"/>
<path d="M42.215 47.3727C42.194 47.1305 42.0274 46.8778 41.9245 46.6622C41.7802 46.3604 41.6376 46.0613 41.5013 45.7555C41.4244 45.5829 41.3583 45.418 41.3327 45.2306C41.3152 45.102 41.3233 44.9733 41.3083 44.8446C41.2866 44.658 41.2175 44.4982 41.1747 44.3175C41.1054 44.0248 41.0441 43.7332 40.9361 43.4511C40.7698 43.0168 40.688 42.6176 40.688 42.1531C40.688 42.0068 40.7071 41.8622 40.7071 41.7162C40.7071 41.6984 40.6922 41.5968 40.7261 41.6272C40.9509 41.8283 41.0555 42.1556 41.1843 42.4204C41.2922 42.6423 41.3689 42.8833 41.4982 43.0948C41.5583 43.1933 41.671 43.2663 41.7187 43.3737C41.9122 43.809 42.0337 44.2964 42.2818 44.7099C42.3938 44.8966 42.5084 45.0769 42.601 45.273C42.7129 45.5097 42.7767 45.8038 42.8259 46.0599C42.8694 46.287 42.9064 46.5178 42.9595 46.7428C42.9957 46.8962 43.0113 47.0513 43.0729 47.1977C43.0825 47.2204 43.1539 47.3554 43.1122 47.3345" stroke="#068EF7" stroke-width="3" stroke-linecap="round"/>
<path d="M40.2489 56.8405C40.3785 56.6527 40.5447 56.4973 40.688 56.3209C40.8682 56.0989 41.0074 55.8874 41.1069 55.6188C41.1816 55.4171 41.2541 55.2187 41.3083 55.0101C41.3318 54.9197 41.3501 54.825 41.39 54.7408C41.4738 54.5639 41.5277 54.3843 41.6509 54.2275C41.6808 54.1894 41.6997 54.1766 41.6997 54.2339C41.6997 54.419 41.7117 54.6078 41.6784 54.7906C41.6313 55.0498 41.5508 55.3129 41.4939 55.5616C41.4832 55.6085 41.4897 55.7539 41.4897 55.7058C41.4897 55.5443 41.6056 55.3805 41.6615 55.2339C41.8243 54.8065 41.8908 54.3331 42.249 54.0154C42.342 53.9329 42.4181 53.8675 42.53 53.8139C42.5831 53.7885 42.6667 53.7506 42.7071 53.7058C42.8108 53.5905 42.7495 53.2053 42.7495 53.0716C42.7495 52.8668 42.6759 52.7111 42.6265 52.5181C42.606 52.438 42.5586 52.342 42.5586 52.2593C42.5586 52.1147 42.6409 51.9882 42.741 51.8881C42.8621 51.7671 42.9583 51.725 42.9107 51.5414C42.8399 51.2683 42.6226 50.968 42.425 50.7704C42.3937 50.7391 42.0068 50.4255 41.987 50.4947C41.971 50.5509 41.986 50.6332 41.986 50.6898C41.986 51.1457 41.7952 51.5706 41.6466 51.9942C41.6005 52.1259 41.5487 52.2554 41.5013 52.3866C41.4926 52.4108 41.4706 52.4834 41.4706 52.4576C41.4706 52.4182 41.4637 52.3913 41.4515 52.3547" stroke="#068EF7" stroke-width="3" stroke-linecap="round"/>
<path d="M41.4515 52.3547C41.4515 51.3812 41.5159 50.4003 41.3476 49.4385C41.3208 49.2854 41.2663 49.1416 41.2426 48.9878C41.2324 48.9215 41.8128 48.9669 41.8704 48.9793C42.1938 49.0492 42.4831 49.1819 42.8216 49.1861C42.9661 49.1879 43.0261 49.1712 43.1313 49.0716C43.1826 49.023 43.211 48.9486 43.2458 48.8807C43.253 48.8667 43.284 48.7865 43.284 48.8086C43.284 48.9337 43.3025 49.0583 43.3031 49.184C43.306 49.8061 43.3031 50.4283 43.3031 51.0504C43.3031 51.1709 43.3173 51.2592 43.3423 51.3717C43.3509 51.4103 43.3714 51.4928 43.389 51.5244C43.4012 51.5465 43.3967 51.6688 43.4102 51.6283C43.477 51.4278 43.4919 51.206 43.5332 50.9995C43.5866 50.7323 43.6577 50.4637 43.6806 50.1914C43.6983 49.9807 43.7272 49.7745 43.7463 49.5636C43.7624 49.3871 43.771 49.2102 43.7803 49.0334C43.7824 48.9933 43.8871 48.9164 43.9139 48.8807" stroke="#068EF7" stroke-width="3" stroke-linecap="round"/>
<path d="M42.5204 47.43C42.5557 47.3243 42.9413 47.312 43.0443 47.2667C43.123 47.2321 43.2275 47.1798 43.2925 47.1246C43.371 47.0578 43.529 47.0492 43.5979 46.9803C43.646 46.9322 43.5923 46.7133 43.5703 46.6474" stroke="#068EF7" stroke-width="3" stroke-linecap="round"/>
<path d="M22.9587 59.1398C22.762 59.1398 22.5654 59.1398 22.3687 59.1398C22.245 59.1398 22.2996 59.2838 22.2348 59.363C22.1161 59.508 21.6971 59.2704 21.5109 59.355C21.0515 59.5638 21.018 58.8745 20.8923 58.6232" stroke="#068EF7" stroke-width="3" stroke-linecap="round"/>
<path d="M20.2398 57.3485C20.2398 57.5147 20.1497 57.6954 20.0569 57.8294C19.9956 57.9179 19.8665 57.9327 19.7826 57.9886" stroke="#068EF7" stroke-width="3" stroke-linecap="round"/>
<path d="M24.3848 56.9828C24.3848 57.7256 24.3848 58.4683 24.3848 59.2111C24.3848 59.4946 24.4319 60.3441 24.4153 60.0611C24.4096 59.9648 24.356 60.2451 24.3543 60.2541C24.3359 60.3536 24.3198 60.4889 24.2697 60.5792C24.2287 60.653 24.0088 60.6408 23.9378 60.6537C23.8665 60.6668 23.5745 60.7011 23.8091 60.7011C24.2502 60.7011 24.6942 60.6869 25.1332 60.7384C25.3903 60.7686 25.6422 60.8231 25.9019 60.8231C25.9246 60.8231 25.6032 60.8144 25.5497 60.8095C25.2517 60.7823 24.9592 60.7336 24.6659 60.6774C24.5087 60.6473 24.4067 60.6681 24.2324 60.6944C24.1249 60.7106 23.9887 60.6706 23.8971 60.7316" stroke="#068EF7" stroke-width="3" stroke-linecap="round"/>
<path d="M29.8099 62.2251C29.8099 60.9427 29.8085 59.6604 29.8099 58.378C29.811 57.4345 29.7998 56.4868 29.8726 55.5452C29.8905 55.313 29.9262 55.0842 29.9488 54.8527C29.9529 54.81 29.9823 54.6447 29.8963 54.7528C29.4484 55.3156 29.1145 56.0154 28.7635 56.6374C28.1465 57.7308 27.5526 58.8375 27.0025 59.9663C26.7976 60.3869 26.5894 60.811 26.4167 61.2464C26.4019 61.2836 26.357 61.3921 26.3828 61.3615C26.5126 61.2074 26.6351 61.0435 26.7621 60.8874C27.5667 59.8983 28.3584 58.8985 29.175 57.9192C29.7084 57.2794 30.242 56.5648 30.9105 56.0549C30.9798 56.002 31.3478 55.6927 31.4033 55.9059C31.4715 56.1685 31.4343 56.5102 31.3931 56.7745C31.3764 56.8819 31.2549 57.1727 31.3305 57.0946C31.4471 56.9738 31.5521 56.7997 31.6488 56.6696C31.9727 56.2335 32.2979 55.7984 32.6241 55.3641C33.0755 54.7629 33.5163 54.1455 34.0142 53.5811C34.0935 53.4913 34.3156 53.2632 34.3139 53.383C34.3097 53.6934 34.0954 54.0895 33.9804 54.3583C33.4803 55.5265 32.8854 56.6519 32.3786 57.8176C32.2869 58.0284 32.5792 57.7232 32.597 57.7075C33.2267 57.1524 33.8059 56.5432 34.4189 55.9702C34.5125 55.8827 34.7035 55.7073 34.8118 55.6214C34.8524 55.5892 34.8942 55.5583 34.9387 55.5317C34.9754 55.5098 35.0632 55.452 35.0234 55.5554C34.9028 55.8691 34.6086 56.1909 34.4155 56.4511C33.982 57.0356 33.5351 57.6101 33.0847 58.1816C32.5662 58.8394 32.0586 59.5108 31.5201 60.1525C31.4388 60.2495 31.2092 60.5417 31.2543 60.4235C31.3435 60.1893 31.7751 59.7729 31.9028 59.6243C33.0034 58.3425 34.1419 57.0889 35.3333 55.8907C35.8511 55.3698 36.4115 54.74 37.0705 54.3854C37.5739 54.1145 36.9579 55.0529 36.9385 55.083C36.28 56.1055 35.4865 57.0504 34.6797 57.9581C34.5042 58.1555 34.3679 58.3048 34.192 58.4949C34.0914 58.6035 33.8077 58.9419 33.8839 58.8149C33.9991 58.6228 34.2798 58.3874 34.4206 58.246C34.9707 57.6935 35.5383 57.158 36.1155 56.634C36.819 55.9954 37.5342 55.3235 38.3676 54.8544C38.4535 54.806 38.7502 54.6048 38.8789 54.6427C39.0138 54.6825 38.8008 54.9197 38.7164 55.0322C38.2065 55.712 37.5274 56.2733 36.9012 56.8406C36.3572 57.3333 35.8101 57.8226 35.2571 58.3052C35.2422 58.3182 34.7956 58.7026 34.9337 58.5914C35.6143 58.0434 36.3196 57.5177 37.0231 56.9997C37.4799 56.6634 37.9506 56.3143 38.4725 56.0837C38.8617 55.9117 38.4726 56.2577 38.3777 56.3495C36.9391 57.7414 35.3908 59.095 33.7162 60.1983C33.3378 60.4476 33.6885 60.1741 33.8263 60.0713C34.4959 59.5712 35.1656 59.0697 35.8497 58.5897C36.0667 58.4374 36.2794 58.2906 36.5033 58.1494C36.6338 58.0671 36.8621 57.893 37.0333 57.8836C37.1478 57.8773 36.9385 58.099 36.8555 58.1782C36.4963 58.5211 36.0929 58.8224 35.6888 59.1095C34.9772 59.6151 34.2284 60.0656 33.4639 60.4861C33.253 60.6021 33.0399 60.7138 32.8273 60.8264C32.8001 60.8408 32.6508 60.9329 32.8002 60.8298C33.002 60.6906 35.0188 59.083 35.1131 59.2009C35.1973 59.3062 34.214 60.0783 34.1599 60.1221C33.6776 60.5116 33.1811 60.8846 32.6613 61.2227C32.5659 61.2847 32.3426 61.4868 32.2126 61.4868C32.177 61.4868 32.2553 61.4291 32.2821 61.4055C32.4008 61.3011 32.5261 61.2037 32.6529 61.1092C32.8968 60.9275 33.1492 60.7615 33.4165 60.6165C33.4715 60.5867 33.7332 60.4503 33.5723 60.6131C33.1205 61.0703 32.5995 61.4759 32.0602 61.8238C31.709 62.0504 32.7044 61.2896 33.0457 61.0483C33.2129 60.9301 33.3889 60.8344 33.5689 60.7384C33.7486 60.6426 33.2808 61.0275 33.1219 61.1549C32.7609 61.4445 32.3927 61.7307 32.0044 61.9829C31.9587 62.0126 31.4877 62.3422 31.6843 62.0862C32.1017 61.5429 32.6 61.0509 33.0711 60.5555C33.7249 59.8681 34.4 59.2222 35.1131 58.5981" stroke="#068EF7" stroke-width="3" stroke-linecap="round"/>
<path d="M40.9345 57.1657C40.8842 57.1757 40.8515 57.2201 40.816 57.2537C40.6438 57.4167 40.4537 57.5533 40.2606 57.6906C39.568 58.1829 38.8928 58.6855 38.2253 59.2111C37.9939 59.3933 37.7713 59.6076 37.5277 59.7733C37.1244 60.0475 38.268 59.1382 38.6419 58.825C39.1578 58.3928 39.6678 57.9489 40.2064 57.545C40.2321 57.5257 40.3723 57.4361 40.2572 57.4772C40.096 57.5348 39.9538 57.7212 39.8237 57.826C39.4103 58.1594 39.0132 58.5059 38.5877 58.825C37.8157 59.404 37.082 60.0428 36.2899 60.5911C36.1815 60.6661 36.3323 60.5742 36.3645 60.5538C36.8232 60.2636 37.2797 60.0053 37.7868 59.8071C38.1369 59.6702 38.5152 59.5702 38.84 59.3753C38.944 59.3129 39.0241 59.1842 39.1363 59.1468" stroke="#068EF7" stroke-width="3" stroke-linecap="round"/>
<path d="M33.6502 61.1888C33.6502 61.1502 33.6353 61.2999 33.6671 61.309C33.7372 61.329 33.84 61.3107 33.911 61.3107C34.0376 61.3107 34.1469 61.3287 34.1988 61.4326" stroke="#068EF7" stroke-width="3" stroke-linecap="round"/>
<path d="M32.5225 62.1336C32.5846 62.1492 32.553 62.4616 32.553 62.5298" stroke="#068EF7" stroke-width="3" stroke-linecap="round"/>
<path d="M30.5109 62.6822C30.5109 62.7986 30.5414 62.905 30.5414 63.0175" stroke="#068EF7" stroke-width="3" stroke-linecap="round"/>
<path d="M24.5372 60.3964C24.5372 60.6079 24.5125 61.1298 24.781 61.2193" stroke="#068EF7" stroke-width="3" stroke-linecap="round"/>
<path d="M28.6518 59.9697C28.6518 60.3461 28.6518 60.7226 28.6518 61.0991C28.6518 61.3199 28.6725 61.5532 28.6145 61.7679C28.5585 61.9751 28.495 62.1641 28.2403 62.1641C28.0441 62.1641 27.8418 62.1758 27.6765 62.286" stroke="#068EF7" stroke-width="3" stroke-linecap="round"/>
<g clip-path="url(#clip1_1_2)">
<path d="M16.5159 46.9992C16.4886 46.9746 16.4632 46.9548 16.433 46.9347" stroke="#068EF7" stroke-width="3" stroke-linecap="round"/>
<path d="M14.8242 45.4688C14.8353 45.4688 14.8464 45.4688 14.8574 45.4688C14.8719 45.4688 14.8672 45.4825 14.8672 45.4941C14.8672 45.5057 14.8748 45.5 14.8867 45.5C14.8948 45.5 14.9044 45.5015 14.9119 45.498C14.9219 45.4935 14.9179 45.4987 14.9227 45.503C14.9244 45.5045 14.9583 45.4993 14.9629 45.498C14.9782 45.494 14.9958 45.4961 15.0115 45.4961C15.0343 45.4961 15.0352 45.4903 15.0352 45.5039" stroke="black" stroke-linecap="square"/>
</g>
<defs>
<clipPath id="clip0_1_2">
<rect width="3" height="3" fill="white" transform="translate(55 44)"/>
</clipPath>
<clipPath id="clip1_1_2">
<rect width="3" height="3" fill="white" transform="translate(14 44)"/>
</clipPath>
</defs>
</svg>
